<svg width="62" height="82" viewBox="0 0 62 82" fill="none" xmlns="http://www.w3.org/2000/svg">
<path fill-rule="evenodd" clip-rule="evenodd" d="M15.1287 81.4034H1.99009C0.918758 81.3391 0.0663363 80.5085 0 79.4133V1.99497C0.0650096 0.92364 0.894877 0.0712191 1.99009 0.00488281H15.1287C15.2056 0.00952635 15.2825 0.0141673 15.3595 0.0188108C15.8723 0.109028 16.1768 0.154135 16.724 0.804894L45.6055 39.5141C46.3047 40.5741 46.1442 41.0776 45.6055 41.8942L16.724 80.6034C16.0945 81.3523 16.0308 81.351 15.1287 81.4034Z" fill="white"/>
<path fill-rule="evenodd" clip-rule="evenodd" d="M60.4898 43.0439C60.976 43.1328 61.3242 43.3623 61.3647 44.0317V80.374C61.3322 80.91 60.9176 81.3359 60.3704 81.369L24.6609 81.3624C23.9192 81.318 23.4264 80.4868 23.8423 79.8015L50.9897 43.4652C51.3035 43.0651 51.342 43.0645 51.8077 43.0366H60.3697C60.4095 43.0386 60.45 43.0413 60.4898 43.0439Z" fill="white"/>
<path fill-rule="evenodd" clip-rule="evenodd" d="M60.4898 38.3252C60.976 38.2363 61.3242 38.0068 61.3647 37.3375V0.995127C61.3322 0.45913 60.9176 0.0332516 60.3704 8.2465e-05L24.6609 0.00672284C23.9192 0.05117 23.4264 0.882381 23.8423 1.56763L50.9897 37.904C51.3035 38.304 51.342 38.3047 51.8077 38.3325H60.3697C60.4095 38.3305 60.45 38.3278 60.4898 38.3252Z" fill="white"/>
</svg>
