<svg width="1110" height="338" viewBox="0 0 1110 338" fill="none" xmlns="http://www.w3.org/2000/svg">
<path d="M198.886 203.069H87.1245V333.069H0V8.96551H87.1245V131.793H198.886V8.96551H286.01V333.069H198.886V203.069Z" fill="#157EFB"/>
<path d="M403.966 237.138C403.817 251.034 407.027 261.121 413.597 267.397C420.167 273.523 428.155 276.586 437.562 276.586C445.476 276.586 452.568 275.092 458.839 272.103C465.26 269.115 470.262 263.138 473.845 254.172H550.891C548.502 271.356 541.708 286.224 530.51 298.776C519.311 311.178 505.649 320.741 489.523 327.466C473.547 334.19 456.973 337.552 439.802 337.552C415.762 337.552 394.56 332.695 376.194 322.983C357.978 313.121 343.793 299.374 333.64 281.741C323.486 264.109 318.41 243.563 318.41 220.103C318.41 197.989 323.038 177.592 332.296 158.914C341.703 140.236 355.141 125.218 372.611 113.862C390.23 102.506 411.432 96.8276 436.218 96.8276C461.452 96.8276 482.505 102.057 499.378 112.517C516.25 122.977 528.867 137.322 537.229 155.552C545.74 173.632 549.995 194.103 549.995 216.965V237.138H403.966ZM403.518 188.276H469.59C469.59 179.46 466.753 171.839 461.079 165.414C455.554 158.839 447.267 155.552 436.218 155.552C427.259 155.552 419.57 158.839 413.149 165.414C406.729 171.839 403.518 179.46 403.518 188.276Z" fill="#157EFB"/>
<path d="M672.346 338C650.995 338 634.272 335.759 622.177 331.276C610.232 326.644 601.572 320.667 596.197 313.345C590.821 306.023 587.462 297.954 586.118 289.138C584.923 280.322 584.326 271.655 584.326 263.138V0H669.659V251.483C669.659 257.011 671.077 262.241 673.914 267.172C676.751 272.103 684.068 275.391 695.863 277.034L705.27 277.931V330.828C700.044 332.77 694.669 334.414 689.144 335.759C683.62 337.253 678.02 338 672.346 338Z" fill="#157EFB"/>
<path d="M821.011 338C799.659 338 782.936 335.759 770.842 331.276C758.897 326.644 750.236 320.667 744.861 313.345C739.486 306.023 736.126 297.954 734.782 289.138C733.588 280.322 732.991 271.655 732.991 263.138V0H818.323V251.483C818.323 257.011 819.742 262.241 822.579 267.172C825.416 272.103 832.732 275.391 844.528 277.034L853.935 277.931V330.828C848.709 332.77 843.333 334.414 837.809 335.759C832.284 337.253 826.685 338 821.011 338Z" fill="#157EFB"/>
<path d="M992.192 337.552C968.301 337.552 947.547 332.471 929.928 322.31C912.458 312.149 898.87 298.178 889.165 280.397C879.609 262.466 874.831 241.92 874.831 218.759C874.831 194.402 879.833 173.109 889.837 154.879C899.99 136.5 913.876 122.23 931.495 112.069C949.264 101.908 969.645 96.8276 992.639 96.8276C1016.83 96.8276 1037.66 102.132 1055.13 112.741C1072.75 123.201 1086.26 137.621 1095.67 156C1105.22 174.379 1110 195.299 1110 218.759C1110 241.77 1105.15 262.241 1095.44 280.172C1085.89 297.954 1072.3 312 1054.68 322.31C1037.06 332.471 1016.23 337.552 992.192 337.552ZM992.639 274.345C1001.9 274.345 1008.84 271.207 1013.47 264.931C1018.25 258.506 1021.38 250.736 1022.88 241.621C1024.52 232.506 1025.34 223.839 1025.34 215.621C1025.34 207.253 1024.52 198.736 1022.88 190.069C1021.38 181.253 1018.25 173.931 1013.47 168.103C1008.84 162.126 1001.9 159.138 992.639 159.138C983.233 159.138 976.14 162.126 971.362 168.103C966.733 173.931 963.598 181.253 961.956 190.069C960.313 198.736 959.492 207.253 959.492 215.621C959.492 223.839 960.313 232.506 961.956 241.621C963.598 250.736 966.733 258.506 971.362 264.931C976.14 271.207 983.233 274.345 992.639 274.345Z" fill="#157EFB"/>
</svg>
