<svg width="841" height="333" viewBox="0 0 841 333" fill="none" xmlns="http://www.w3.org/2000/svg">
<path d="M195.804 200.065H85.7747V328.142H0V8.83288H85.7747V129.843H195.804V8.83288H281.579V328.142H195.804V200.065Z" fill="url(#paint0_linear_159:192)"/>
<path d="M397.708 233.63C397.561 247.321 400.721 257.258 407.189 263.441C413.657 269.477 421.522 272.495 430.783 272.495C438.574 272.495 445.556 271.023 451.73 268.078C458.051 265.134 462.976 259.245 466.504 250.412H542.356C540.004 267.342 533.315 281.99 522.29 294.356C511.265 306.575 497.815 315.997 481.939 322.621C466.21 329.246 449.893 332.558 432.988 332.558C409.321 332.558 388.447 327.774 370.365 318.205C352.431 308.489 338.466 294.945 328.47 277.574C318.474 260.202 313.476 239.96 313.476 216.847C313.476 195.06 318.033 174.965 327.147 156.563C336.408 138.161 349.638 123.366 366.837 112.178C384.184 100.989 405.058 95.3952 429.46 95.3952C454.303 95.3952 475.03 100.548 491.641 110.853C508.252 121.158 520.673 135.29 528.905 153.251C537.284 171.064 541.474 191.232 541.474 213.756V233.63H397.708ZM397.267 185.491H462.314C462.314 176.805 459.521 169.297 453.935 162.967C448.496 156.489 440.338 153.251 429.46 153.251C420.64 153.251 413.069 156.489 406.748 162.967C400.427 169.297 397.267 176.805 397.267 185.491Z" fill="url(#paint1_linear_159:192)"/>
<path d="M661.93 333C640.909 333 624.445 330.792 612.538 326.375C600.778 321.812 592.251 315.923 586.959 308.71C581.667 301.496 578.36 293.546 577.037 284.861C575.861 276.175 575.273 267.637 575.273 259.245V0H659.284V247.763C659.284 253.21 660.68 258.362 663.473 263.22C666.266 268.078 673.469 271.317 685.082 272.936L694.343 273.82V325.934C689.198 327.847 683.906 329.467 678.467 330.792C673.028 332.264 667.516 333 661.93 333Z" fill="url(#paint2_linear_159:192)"/>
<path d="M808.291 333C787.27 333 770.806 330.792 758.899 326.375C747.139 321.812 738.613 315.923 733.321 308.71C728.029 301.496 724.721 293.546 723.398 284.861C722.222 276.175 721.634 267.637 721.634 259.245V0H805.645V247.763C805.645 253.21 807.041 258.362 809.834 263.22C812.627 268.078 819.83 271.317 831.443 272.936L840.704 273.82V325.934C835.559 327.847 830.267 329.467 824.828 330.792C819.389 332.264 813.877 333 808.291 333Z" fill="url(#paint3_linear_159:192)"/>
<defs>
<linearGradient id="paint0_linear_159:192" x1="8.9903" y1="76.7444" x2="825.25" y2="216.993" gradientUnits="userSpaceOnUse">
<stop stop-color="#E91A78"/>
<stop offset="1" stop-color="#FA812B"/>
</linearGradient>
<linearGradient id="paint1_linear_159:192" x1="8.9903" y1="76.7444" x2="825.25" y2="216.993" gradientUnits="userSpaceOnUse">
<stop stop-color="#E91A78"/>
<stop offset="1" stop-color="#FA812B"/>
</linearGradient>
<linearGradient id="paint2_linear_159:192" x1="8.9903" y1="76.7444" x2="825.25" y2="216.993" gradientUnits="userSpaceOnUse">
<stop stop-color="#E91A78"/>
<stop offset="1" stop-color="#FA812B"/>
</linearGradient>
<linearGradient id="paint3_linear_159:192" x1="8.9903" y1="76.7444" x2="825.25" y2="216.993" gradientUnits="userSpaceOnUse">
<stop stop-color="#E91A78"/>
<stop offset="1" stop-color="#FA812B"/>
</linearGradient>
</defs>
</svg>
