<svg width="60" height="32" viewBox="0 0 60 32" fill="none" xmlns="http://www.w3.org/2000/svg">
<path d="M17.1946 0.363299C17.0788 0.140249 16.847 0 16.5936 0C16.3403 0 16.1084 0.140249 15.9925 0.363299L0.0750046 31.0237C-0.0330264 31.2314 -0.0237534 31.4796 0.0989127 31.679C0.22169 31.8783 0.440322 31.9999 0.676046 31.9999H4.24643C4.4997 31.9999 4.73162 31.8595 4.84747 31.6366L16.5936 9.01145L28.3398 31.6366C28.4557 31.8595 28.6875 31.9999 28.9408 31.9999H32.5112C32.7468 31.9999 32.9655 31.8783 33.0884 31.679C33.2109 31.4796 33.2201 31.2314 33.1122 31.0237L17.1946 0.363299Z" fill="white"/>
<path d="M59.6021 0.655979C59.6017 0.6417 59.599 0.627863 59.5978 0.613584C59.5945 0.57473 59.5887 0.536985 59.5789 0.500345C59.5748 0.484626 59.5698 0.469461 59.5644 0.454074C59.5516 0.41677 59.5355 0.381345 59.5165 0.347362C59.5117 0.338727 59.5098 0.329209 59.5046 0.320796C59.5023 0.317032 59.4988 0.314487 59.4966 0.310834C59.4687 0.267441 59.4366 0.227146 59.3996 0.191281C59.3924 0.184418 59.3841 0.179107 59.3766 0.172576C59.3453 0.144792 59.3117 0.119994 59.2755 0.0982974C59.2619 0.090106 59.248 0.0830212 59.2337 0.075826C59.1998 0.0585575 59.1645 0.0446122 59.1276 0.0332106C59.1134 0.0287828 59.0999 0.0236895 59.0854 0.0201473C59.0345 0.00808151 58.9821 0 58.9275 0H55.3569C55.2991 0 55.2439 0.00940918 55.1904 0.022914C55.1759 0.0264562 55.1624 0.0312166 55.1482 0.0358658C55.1062 0.0494813 55.0663 0.0666385 55.0284 0.0877812C55.0175 0.0938695 55.0062 0.0987397 54.9957 0.105381C54.9498 0.134273 54.9077 0.167925 54.8702 0.206668C54.8626 0.214417 54.8566 0.223384 54.8495 0.231576C54.8191 0.266002 54.7928 0.303195 54.7701 0.343156C54.766 0.350462 54.7598 0.355887 54.7558 0.363303L49.5272 10.4348L43.0098 22.9887L31.2637 0.363303C31.1478 0.140252 30.916 0 30.6626 0H27.0922C26.8566 0 26.6379 0.121545 26.5151 0.320796C26.3925 0.520269 26.3833 0.768557 26.4912 0.976221L42.4089 31.6367C42.5247 31.8596 42.7565 32 43.0098 32C43.2632 32 43.495 31.8596 43.6109 31.6367L54.681 10.3136V31.3302C54.681 31.7001 54.9836 32 55.3569 32H58.9275C59.3009 32 59.6035 31.7001 59.6035 31.3302V0.669708C59.6035 0.665059 59.6022 0.660629 59.6021 0.655979Z" fill="white"/>
</svg>
